<?xml version="1.0" encoding="UTF-8"  standalone = "no" ?>
 <svg width="13400" height="9400" viewBox="0 0 13400 9400" xmlns="http://www.w3.org/2000/svg"  xmlns:xlink="http://www.w3.org/1999/xlink">
     <g
       id="g3580"
       transform="matrix(1,0,0,-1,0,9400)">
       <rect
         y="0"
         x="0"
         height="9400"
         width="13400"
         id="rect3440"
         style="display:inline;opacity:1;fill:#617400;fill-opacity:1;stroke:none;stroke-width:0.2;stroke-miterlimit:4;stroke-dasharray:none;stroke-opacity:0.38172045" />
      <path
         id="path4255"
         d="M 0,1.046875e-4 C 0,300.54589 0,672.28202 0,672.28202 c 124.47464,10.58122 344.58637,-30.98732 344.58637,41.74366 0,72.73099 -102.14976,305.74882 -29.41878,362.31732 72.73099,56.5686 274.7615,113.1371 347.49248,210.1118 72.73098,96.9746 177.78685,105.0558 323.24881,105.0558 145.46192,0 460.62952,-24.2436 509.11692,-24.2436 48.4873,0 88.8934,16.1624 153.5432,80.8122 64.6497,64.6497 122.3807,180.2868 177.7868,274.7615 53.1462,90.6212 215.3427,-8.6066 288.0737,-8.6066 72.731,0 245.1117,144.6498 342.2615,65.1751 90.2091,-73.7968 -32.3249,-436.3859 72.731,-492.9544 154.6449,-107.6985 235.1741,-30.2657 304.7615,-51.7996 69.5874,-21.5339 301.7361,-127.5558 365.9798,-4.769 83.1834,158.9857 -105.0559,363.6549 88.8934,395.9798 193.9493,32.3249 346.7361,47.3249 362.8986,-65.8122 16.1624,-113.1371 28.6065,-318.0178 109.4187,-326.099 80.8122,-8.0813 190.3428,4.0126 279.2362,-28.3122 88.8934,-32.3249 40.4061,-129.2996 218.1929,-121.2183 177.7869,8.0812 573.7667,-80.8122 654.5789,-8.0813 80.8122,72.731 50.4461,170.2859 241.6802,227.4366 243.3681,72.731 167.1498,153.3681 339.7615,74.6498 220.7041,-100.6505 428.7108,-108.1371 533.7667,-148.5432 105.0558,-40.4061 40.4061,-161.6244 242.4366,-129.2995 202.0305,32.3249 282.8427,105.0559 395.9798,161.6244 113.1371,56.5685 299.0051,282.8427 371.7361,282.8427 72.731,0 379.8174,40.4061 541.4418,16.1625 161.6244,-24.2437 250.5178,-145.462 492.9544,-24.2437 242.4366,121.2183 234.3554,113.1371 404.061,161.6244 169.7057,48.4873 153.5432,299.0052 395.9798,137.3808 242.4367,-161.6245 169.7057,-412.1423 331.3301,-420.2235 161.6244,-8.0812 379.8173,-153.5432 468.7108,-32.3249 88.8934,121.2183 210.1117,242.4366 234.3553,299.0052 24.2437,56.5685 16.1625,266.6802 161.6249,234.3554 145.462,-32.3249 226.274,-145.462 395.979,-72.731 169.706,72.731 202.031,347.4924 379.818,363.6549 l 177.787,16.1624 c 0,0 113.137,8.0812 113.137,-258.599 0,-266.6803 -105.056,-606.0915 40.406,-606.0915 145.462,0 299.005,-56.5686 468.711,-64.6498 169.705,-8.0812 444.467,-56.5686 549.523,64.6498 105.055,121.2183 250.517,161.6244 379.817,258.599 129.299,96.9746 88.893,202.0305 234.355,226.2742 145.462,24.2436 377.724,23.6624 377.724,96.3934 0,72.731 -224.181,202.6117 -183.774,291.5051 40.406,88.8935 -16.163,323.2489 88.893,347.4925 105.056,24.2437 308.423,40.4061 308.423,40.4061 L 13400,1.046875e-4 Z"
         style="display:inline;opacity:1;fill:#c8fdf5;fill-opacity:1;fill-rule:evenodd;stroke:none;stroke-width:1px;stroke-linecap:butt;stroke-linejoin:miter;stroke-opacity:1" />
      <path
         id="path4261"
         d="m 804.28448,252.23369 c -65.8122,32.32488 21.68779,217.43661 -89.93662,258.42393 -158.39998,58.16282 -285.39857,327.26149 -156.09905,408.07369 129.29953,80.81221 187.12523,226.02359 358.01031,179.76149 258.35218,-69.9413 619.17278,220.2869 716.14738,58.6624 96.9747,-161.62436 145.462,-226.27412 0,-323.24877 -145.462,-96.97464 -294.8732,-20.46196 -336.561,-177.78684 -22.2937,-84.13383 320.3986,-161.62441 498.1854,-64.64977 177.7869,96.97465 668.8973,168.83672 673.6474,54.64977 6.1624,-148.13709 215.2869,-216.27417 85.9873,-345.5737 C 2424.3661,171.24637 1923.3304,25.784399 1891.0056,122.75904 1858.6807,219.73369 1701.069,355.02053 1566.5943,317.87077 1454.2534,286.83565 1308.5647,49.099278 1214.6831,114.27172 1036.546,237.93416 870.09668,219.90881 804.28448,252.23369 Z"
         style="display:inline;opacity:1;fill:#617400;fill-opacity:1;fill-rule:evenodd;stroke:none;stroke-width:1px;stroke-linecap:butt;stroke-linejoin:miter;stroke-opacity:1" />
      <path
         id="path4258"
         d="M 2537.5032,9400 0,9400.0001 0,526.82006 c 0,0 21.512678,-129.47464 105.8122,-159.12441 136.37209,-47.9647 118.31221,-151.44928 200.28685,-139.1244 101.08413,15.19799 225.48104,12.17996 217.08637,64.64976 -32.5,203.13708 45.51712,329.61389 -42.32488,402.72346 -268.3122,223.3122 59.69493,221.07576 -119.47464,298.77417 -65.28685,28.31216 3.69411,55.22686 -20.11173,191.27416 -14.98702,85.6488 -8.78079,688.2372 1.17218,1287.5961 9.95297,599.3589 23.6527,1195.4883 23.6527,1268.2193 0,145.462 -59.01268,2183.2671 -75.17512,2361.0539 -16.16244,177.7868 113.13709,614.1727 113.13709,872.7718 0,258.599 210.11173,662.6601 436.3859,694.9849 226.27418,32.3249 291.56098,270.924 533.99758,384.0611 242.4367,113.137 371.0991,213.9493 581.2108,504.8732 210.1118,290.9239 379.9352,259.1362 502.023,411.561 68.3122,85.2868 79.8249,428.8859 79.8249,428.8859 z"
         style="display:inline;opacity:1;fill:#24a3dd;fill-opacity:1;fill-rule:evenodd;stroke:none;stroke-width:1px;stroke-linecap:butt;stroke-linejoin:miter;stroke-opacity:1" />
      <path
         id="path4165"
         d="m 1280.3571,8803.9286 c -22.8571,102.8571 22.5,596.0714 22.5,596.0714 L 0,9400.0001 c 0,0 320,-45.7144 365.71429,-388.5715 45.71428,-342.8572 -132.5,-285.3572 -150,-506.7857 -19.80921,-250.647 58.57143,-636.0715 58.57143,-956.0715 0,-320 22.85714,-297.1428 0,-594.2857 -22.85715,-297.1429 -10.66523,-477.2672 -18.57143,-728.5714 -5,-158.9286 -112.76332,-296.551 -11.07143,-680 C 294.27061,5358.5832 284.28572,4985 256.78572,4686.4285 221.14711,4299.4949 205.71429,3640 205.71429,3320 c 0,-320 -84.28572,-1008.2143 -38.57143,-1168.2143 45.71428,-160 122.5,-413.9286 122.5,-642.5 0,-228.5715 -170.8828,-648.20423 -56.07143,-723.21432 107.14286,-70 365.35714,-71.78571 571.07143,202.5 C 1010.3572,1262.8571 1028.5714,1697.1428 800,1834.2857 c -228.57143,137.1428 -525.71428,434.2857 -228.57143,662.8571 297.14286,228.5714 536.56373,39.8989 718.92853,287.5 175.7143,238.5715 286.7858,238.2143 286.7858,512.5 0,274.2857 243.4751,801.3904 91.4285,822.8572 -160.8385,22.7081 -132.411,71.0412 -205.7142,205.7143 -46.0715,84.6428 -183.2143,46.7857 -274.2858,0 C 961.26152,4208.9395 707.54947,4432.8662 923.92858,4630 c 148.57142,135.3571 225.71432,281.4285 236.42852,352.8571 37.9082,252.7234 73.9286,462.8572 73.9286,737.1429 0,274.2857 -205.7143,960 -137.1428,1257.1428 68.5714,297.1429 114.2857,297.1429 411.4285,525.7143 297.1429,228.5715 365.7143,205.7143 342.8572,480 -22.8572,274.2858 -222.9858,503.4418 -302.5,548.5715 -118.9286,67.5 -245.7144,169.6429 -268.5715,272.5 z"
         style="display:inline;opacity:1;fill:#f4ee76;fill-opacity:1;fill-rule:evenodd;stroke:none;stroke-width:1px;stroke-linecap:butt;stroke-linejoin:miter;stroke-opacity:1" />
      <path
         id="path4168"
         d="m 624,7624 c -209.08961,243.1547 -319,452 -52.5,503.5 436.4829,84.3485 552.2167,390.9371 592,232.5 51.4155,-204.7625 221.2337,-164.7419 106.5,-326 -145.5,-204.5 -124.5,-411 -203.5,-373 -173.62375,83.5152 -300.15774,-202.5328 -442.5,-37 z"
         style="display:inline;opacity:1;fill:#26a3dd;fill-opacity:1;fill-rule:evenodd;stroke:none;stroke-width:1px;stroke-linecap:butt;stroke-linejoin:miter;stroke-opacity:1" />
      <path
         id="path4172"
         d="m 1616,2920 c -64,48 -450.5486,315.6531 -192,432 360,162 546.5,541 226.5,461 -320,-80 -449.9545,-206.5535 -498.5,-29 -48.5455,177.5535 268.3987,343.7672 558.5,251.5 349,-111 465.5,36.5 673.5,-43.5 208,-80 16,-352 416,-224 400,128 560,384 672,160 112,-224 192,-64 112,-416 -80,-352 144,-384 -144,-432 -288,-48 -304,-80 -624,-32 -320,48 -208,224 -448,208 -240,-16 -240,80 -352,-144 -112,-224 -336,-240 -400,-192 z"
         style="display:inline;opacity:1;fill:#5cc75f;fill-opacity:1;fill-rule:evenodd;stroke:none;stroke-width:1px;stroke-linecap:butt;stroke-linejoin:miter;stroke-opacity:1" />
      <path
         id="path4194"
         d="M 1309.5,5452 C 1186,5458.5 1120,5096 960,5192 c -160,96 -208,32 -256,272 -48,240 -126.94844,412.1795 32,592 99,112 160,144 240,64 80,-80 49,-129.5 144,-80 221.6447,115.4886 96,210 240,162 144,-48 124,-108.5 134,-274.5 15.3938,-255.5368 206,-551 94,-583 -112,-32 -115.245,-145.7804 -194,-83.5 -78.755,62.2804 39,184.5 -84.5,191 z"
         style="display:inline;opacity:1;fill:#5cc75f;fill-opacity:1;fill-rule:evenodd;stroke:none;stroke-width:1px;stroke-linecap:butt;stroke-linejoin:miter;stroke-opacity:1" />
      <path
         id="path4197"
         d="m 1424,6840 c -179.5,-93 -491.67466,-10.0844 -393,76.5 125.7068,110.3044 158.673,446.0391 -1.5,349 -68.5,-41.5 -177,-156 -257,-28 -80,128 -144,368.5 -16,368.5 128,0 300,-238.5 385,36 33.1293,106.9881 -245.5,190 -117.5,302 128,112 348.5,-90 526,-75.5 85.8766,7.0153 304.5,211 176.5,339 -128,128 61,254 77,398 16,144 -123.5,410.5 148.5,410.5 272,0 448,16 464,144 16,128 32,240 32,240 l 518.5,0 c 0,0 83.52,3.4699 145.5,-84 107.8157,-152.1561 84,-249.5 248,-188 290.8836,109.0813 228.7771,-51.4094 496,-160 267,-108.5 109.5,-273 368,-233 332.0482,51.3808 704,57 704,-103 0,-160 32,-432 -192,-448 -224,-16 -85.5,146.5 -205.5,178.5 -157.6592,42.0425 -131.0522,170.3894 -303,16.5 -109.5,-98 -97.7923,9.5381 -259.5,-179 -111.5,-130 -217,-242 -29,-259.5 150.294,-13.9901 -163,-188.5 173,-140.5 336,48 256,-240 528,-240 272,0 432,16 432,-128 0,-144 96,-160 -224,-208 -320,-48 -96,-96 -336,-208 -240,-112 -416,-112 -704,-160 -288,-48 16,192 -192,240 -208,48 -240.4752,-13.1164 -368,-80 -71.5,-37.5 -198.1213,20.5215 -64,224 146,221.5 52.5,532 -107.5,308 -160,-224 -148.5,-228 -404.5,-292 -256,-64 -213.1122,-269.1774 -342.5,-295 -235.5,-47 -109.5,-173 -329,-155.5 -350.8866,27.975 -397,127.5 -576.5,34.5 z"
         style="display:inline;opacity:1;fill:#5cc75f;fill-opacity:1;fill-rule:evenodd;stroke:none;stroke-width:1px;stroke-linecap:butt;stroke-linejoin:miter;stroke-opacity:1" />
      <path
         id="path4364"
         d="m 4304,9400 c -250.5,-214.5 -410,-83 -592,-144 -273.4915,-91.6647 -304,-208 -304,-288 0,-80 208,-160 -16,-256 -224,-96 -275,-43 -270,-138 9.402,-178.6382 62,-150 238,-150 176,0 240,288 384,240 144,-48 302.5,-78 558.5,-62 256,16 537.0615,225.1925 572,-93.5 15.6928,-143.1424 26,-316.5 -54,-396.5 -80,-80 75.5,-136 -132.5,-136 -208,0 -106,91.5 -346,139.5 -240,48 -433.0354,371.2202 -456.5,41 -5.6713,-79.8128 537.5,-132.5 457.5,-308.5 -80,-176 -311,-256 -167,-336 144,-80 80,-128 352,-128 l 448,0 c 160,0 272,-256 416,16 144,272 64,224 224,320 160,96 192,416 432,432 240,16 592,-176 672,48 80,224 -64,464 160,416 224,-48 160,-144 288,-80 128,64 144,16 256,160 112,144 80,240 352,256 272,16 512,112 480,-32 -32,-144 -259.1144,-239.3518 -209.5,-295.5 173.7696,-196.6536 343,-177.5 437.5,-119 231.6719,143.4159 476,-81.5 652,-1.5 176,80 191,123 113,191.5 -172.1304,151.1658 -291.5,133 -235.5,217.5 115.2432,173.8937 186.5,247 378.5,71 192,-176 87.5,-171.5 279.5,-235.5 192,-64 124.5,-173 257,-84 336.27,225.8722 455.5,47.5 567.5,127.5 112,80 -1.371,124.4004 239.5,149 117.5,12 141.5,-127 304.5,43 277.72,289.647 316.5,49 428.5,145 112,96 131.5,271 131.5,271 z"
         style="display:inline;opacity:1;fill:#005e22;fill-opacity:1;fill-rule:evenodd;stroke:none;stroke-width:1px;stroke-linecap:butt;stroke-linejoin:miter;stroke-opacity:1" />
      <path
         id="path4289"
         d="m 13400,5592 c -128,0 -312,112 -440,0 -128,-112 -284.5,-59 -332.5,-203 -48,-144 -316.5,-222 -67.5,-261 230.158,-36.0488 176,-128 176,-240 0,-112 -64,-224 128,-176 192,48 64,16 240,80 176,64 296,80 296,80 z"
         style="display:inline;opacity:1;fill:#a46a44;fill-opacity:1;fill-rule:evenodd;stroke:none;stroke-width:1px;stroke-linecap:butt;stroke-linejoin:miter;stroke-opacity:1" />
      <path
         id="path4200"
         d="m 5472,5352 c -112,48 -443.5,55 -272,240 263.316,284.0435 192,208 256,400 64,192 32,416 176,400 144,-16 128,-32 224,64 96,96 406.0007,360.807 512,224 101.5,-131 384,-393 384,-144 0,304 64,528 -160,528 -224,0 -256,48 -432,-32 -176,-80 -107,-128.5 -331,-112.5 -224,16 -333.5834,164.3489 -415.5,89.5 -76.7281,-70.108 -255.9712,63.5411 -210,103.5 147.5979,128.2943 350.5,170.5 462.5,138.5 112,-32 325.5,-52.5 279,111 -62.2073,218.7287 -418.5,-9 -450.5,71 -32,80 -162,118 -146,262 16,144 347.5,121 411.5,329 64,208 22.5,407.5 262.5,359.5 240,-48 151.5,105.5 407.5,89.5 256,-16 247,-224.5 391,-128.5 144,96 182,77 329,33.5 349.8594,-103.5298 489.5,-14.5 345.5,209.5 -144,224 -406.3473,465.5749 -142.5,461.5 388.5,-6 413.5,198.5 621.5,118.5 208,-80 20,-391 212,-407 192,-16 373.5,159.5 501.5,-48.5 128,-208 97,-167 -31,-327 -128,-160 -369,119 -465,-121 -96,-240 -240,-384 -80,-432 160,-48 176,128 304,160 128,32 128,128 336,96 208,-32 160,-240 304,-176 144,64 128,224 32,288 -96,64 48,160 240,128 192,-32 240,-32 368,-176 128,-144 256,-48 272,-288 16,-240 96,-416 -48,-384 -144,32 -275.5,217.5 -304,80 -32.6354,-157.4514 -57.5,-314 134.5,-314 192,0 155.5,51.5 347.5,51.5 192,0 48,-176.5 272,-112.5 224,64 195,54.5 174,119 -64.584,198.3655 -181.5,171 -123.5,261 81.766,126.8789 235.5,-261 315.5,-53 80,208 -112,304 -112,448 0,144 -48,432 0,624 48,192 -102,310 -86,422 16,112 124.185,316.0568 333.5,110 128.5,-126.5 52.979,-449.8149 311,-293.5 219.332,132.8761 221.747,38.211 283,184 94.789,225.6058 -25.5,393.5 -25.5,393.5 l 704,0 c 0,0 146.5,-13.3776 132,-89 -32.5,-169.5 87.5,-156.5 163.5,-232 113.51,-112.7631 -46,-206 212.5,-244.5 307.275,-45.7643 132,-138.5 388,-138.5 l 360,0 c 0,0 2,-267.5 0,-432 -112,-192 -67.5,-9.5 -259.5,-89.5 -192,-80 -190,-75.5 -286,116.5 -96,192 -10,198 -198.5,213 -255.193,20.3072 -32,-144 -304,-208 -272,-64 -244.248,108.9076 -400,-128 -95,-144.5 -256.5,-202.5 -80,-352 225.122,-190.6837 380.901,6.9659 480,-192 64.5,-129.5 -73.6,-115.2 64,-272 64.5,-73.5 154.696,-324.0496 336.5,-141 219,220.5 647.5,181.5 647.5,181.5 l 0,-328.5 c 0,0 -40,-218.5 -190,-158.5 -150,60 -538,-17.5 -538,-17.5 -208,0 -368,96 -528,144 -160,48 -198.303,34.5759 -448,160 -217,109 -444.653,473.5912 -496,112 -36.319,-255.7584 462,-296.5 400,-368 -286.106,-329.9446 -288,-32 -688,-32 -400,0 -720,-48 -880,32 -160,80 -463.8573,328.8617 -415.5,44.5 46,-270.5 20.5,-232 223.5,-284.5 289.384,-74.8406 -80,-272 -256,-160 -176,112 -368,592 -384,240 -16,-352 -160,-480 176,-544 336,-64 464,-64 896,-64 432,0 686.5,235.5 608,0 -106.733,-320.1999 -720,-336 -464,-528 256,-192 272,-256 480,-224 208,32 117.953,-159.6588 448,32 285,165.5 96,192 144,416 48,224 -128,320 240,336 368,16 624,240 656,-80 32,-320 73,-220 121,-460 48,-240 -70,-332.5 202,-332.5 272,0 381,-135.5 509,-55.5 128,80 184,112 184,112 l 0,-352 c 0,0 2.857,78.5714 -264,-16 -300.486,-106.4893 -464.486,-186.3827 -704,-96 -106,40 -176,-160 -320,48 -144,208 -42.588,194.6493 47.5,340 119.565,192.9087 140.035,315.1615 -81,282 -268.067,-40.2176 -196.5,-100.5 -293.5,-144.5 -134.338,-60.9368 -361,82.5 -233,-205.5 128,-288 320,-608 16,-576 -304,32 -224,304 -368,272 -144,-32 -160,-96 -256,-224 -96,-128 -255.281,-161.5234 -432,-160 -116,1 -199.5,37 -151.5,117 48,80 279.5,-37 263.5,123 -16,160 46.5,195.5 -129.5,195.5 -176,0 -130,128.5 -238.5,-35.5 -157.182,-237.5835 89.175,-224.1649 -216,-300 -245.8046,-61.0818 -461,-214.5 -360,-36 152.9891,270.3818 82.5,355.5 -64,256 -207.174,-140.7086 -320,-304 -352,-208 -32,96 192,192 112,320 -80,128 -512,352 -112,368 400,16 352,320 512,32 160,-288 139,-366 234.5,-280.5 134.866,120.744 25.938,160.3791 70.5,268 79.5,192 -22,151 31,316.5 65.104,203.2965 109,382 -131,334 -240,-48 -174.5862,84.6613 -525,-126 -254.5,-153 -70,-376.5 -448,-208 -347.3661,154.8444 -352,384 -608,144 -256,-240 -19,-179 -192,-384 -204.8268,-242.7138 -179,-62.5 -480,-97.5 -333.7513,-38.8083 -240,161.5 -576,97.5 -336,-64 -128,-208 -384,-160 -256,48 -32,224 -336,176 -304,-48 -320,112 -512,32 -192,-80 -336,-192 -448,-144 z"
         style="display:inline;opacity:1;fill:#5cc75f;fill-opacity:1;fill-rule:evenodd;stroke:none;stroke-width:1px;stroke-linecap:butt;stroke-linejoin:miter;stroke-opacity:1" />
      <path
         id="path4326"
         d="m 13400,9400 c 0,0 -798.5,-12.5 -1030,-8 188.5,-183 -282.5,-317 -234.5,-477 48,-160 204.058,32.733 295,-179.5 56.365,-131.5408 173.907,-32.2522 395.5,-65 101.5,-15 256.215,-94.8347 309,38 84.588,212.8688 265,131.5 265,131.5 z"
         style="display:inline;opacity:1;fill:#005e22;fill-opacity:1;fill-rule:evenodd;stroke:none;stroke-width:1px;stroke-linecap:butt;stroke-linejoin:miter;stroke-opacity:1" />
      <path
         id="path4222"
         d="m 1519,4949.5 c 97.5,142 -101.1152,526.496 -6,539.5 256,35 355.8331,-161.7765 403.5,-90 129.5,195 143.5,36.5 255.5,116.5 112,80 71.5,87 -40.5,199 -112,112 12.5,213.5 -179.5,37.5 -192,-176 -253.5,-84 -221.5,44 32,128 -73.5,165.5 54.5,229.5 128,64 245,-92 245,84 0,176 18,266.5 178,266.5 160,0 255,86.5 93,169.5 -151.3714,77.5545 -91.5,422.5 -251.5,150.5 -160,-272 -241.5,-384 -337.5,-256 -96,128 -49.5,210 -113.5,322 -64,112 -123.5,336.5 -11.5,336.5 112,0 406.5297,2.3356 276,154.5 -181,211 -134.5,265 -15.5,293 143.5914,33.7862 337.9184,38.2727 265.5,-201 -34.1318,-112.7726 142,-431 222,-287 80,144 105.5,293.5 217.5,181.5 112,-112 -88.5,-223.5 -72.5,-351.5 16,-128 188,-5.5 188,-181.5 0,-176 -8,-348 232,-220 240,128 163.2229,351.3899 410,237 404.5,-187.5 797.5,107.5 843.5,-87.5 42.8404,-181.6059 -47,-300.5 81,-316.5 128,-16 167.5,254.5 247.5,174.5 80,-80 336.2442,52.883 280.5,-153.5 -52.8047,-195.4998 155.2596,-442.4564 -13,-496.5 -151,-48.5 -260,170 -309,-74 -45.8679,-228.4034 -215,-51.5 -261.5,-223.5 -52.8186,-195.3719 77,-210.5 -99,-370.5 -176,-160 -64,-208 -368,-176 -304,32 -414.5,283.5 -686.5,235.5 -272,-48 44.6691,-256.9379 -309.5,-259 -343.5,-2 -311.5627,-116.0334 -403.5,-180 -64.4373,-58.9666 -197,-2.5 -161,-164.5 32,-144 480.2376,158.3956 403.5,-72 -39.6762,-119.123 81.2795,-217.9267 -171,-248 -172.9967,-20.6223 -114,133 -288,32 -246.3739,-143.0101 -353.0681,-212.5071 -344.5,-48 7.5,144 -145.5,103 -55.5,208 164.6386,192.0784 225.1163,275.1294 310,419 118,200 42.7426,371.0456 -76.5,157.5 -158.1162,-283.1624 -508,-273 -410.5,-131 z"
         style="display:inline;opacity:1;fill:#b3b3b3;fill-opacity:1;fill-rule:evenodd;stroke:none;stroke-width:1px;stroke-linecap:butt;stroke-linejoin:miter;stroke-opacity:1" />
      <path
         id="path4225"
         d="m 1624,7631.5 c -192,-64 -110.8255,-351.3761 -524.5,-171 -114.54826,49.9469 -127.5,219.5 0.5,299.5 128,80 264,-77 296,83 32,160 55.5,283 119.5,283 64,0 24,-188 136,-204 112,-16 233,-16 249,112 16,128 54.7293,82.8014 342.5,102.5 168,11.5 157.5,95 303,20.5 151.3909,-77.5163 98,-142.5 175.5,-167 155.5796,-49.1832 190.5,-142 270.5,2 80,144 275.4211,292.9881 336.5,140 52.5,-131.5 159.5,-156 -16.5,-284 -176,-128 -192,-112 -368,-96 -176,16 -283.5608,211.4659 -443,19 -70,-84.5 11,-123.5 -4,-217 -25.4708,-158.7679 -336,161.5 -464,161.5 -128,0 -409,-84 -409,-84 z"
         style="display:inline;opacity:1;fill:#b3b3b3;fill-opacity:1;fill-rule:evenodd;stroke:none;stroke-width:1px;stroke-linecap:butt;stroke-linejoin:miter;stroke-opacity:1" />
      <path
         id="path4228"
         d="M 332.5,7280.5 C 196,7297.5 128,7192 128,7416 c 0,224 -96,512 0,656 96,144 335,116.5 351,308.5 16,192 -66.5,328.5 141.5,344.5 208,16 284,136.5 332,8.5 48,-128 -12.16422,-240.3328 153,-267 85.1698,-13.7514 70.5,52 128,166 100.877,199.9996 -141.5,321.5 34.5,385.5 176,64 175,275 335,211 160,-64 413,-53 189,-213 -224,-160 -224,-80 -272,-208 -48,-128 -137.6502,-138.5837 -64,-208 116.457,-109.7623 275.5,-45 179.5,-221 -96,-176 -178,-107 -249.5,-133.5 -218.4428,-80.9613 -137,81 -344.5,-6 C 891.02264,8176.4083 781,8395 685,8283 589,8171 621,8120 573,7944 525,7768 432,7592 432,7512 c 0,-80 37,-248.5 -99.5,-231.5 z"
         style="display:inline;opacity:1;fill:#b3b3b3;fill-opacity:1;fill-rule:evenodd;stroke:none;stroke-width:1px;stroke-linecap:butt;stroke-linejoin:miter;stroke-opacity:1" />
      <path
         id="path4231"
         d="m 970,9400 c -47.5,-172.5 -45,-187.5 -158,-281.5 -110.01864,-91.5199 -162.5,110 -222.5,-10.5 -57.05308,-114.5816 33,-267.5 97,-219.5 64,48 136.5,103 216.5,39 80,-64 165,48 181,96 16,48 79.5714,130.5714 191.5714,146.5714 112,16 186.9286,14 186.9286,126 C 1462.5,9390.9286 1400,9400 1400,9400 Z"
         style="display:inline;opacity:1;fill:#b3b3b3;fill-opacity:1;fill-rule:evenodd;stroke:none;stroke-width:1px;stroke-linecap:butt;stroke-linejoin:miter;stroke-opacity:1" />
      <path
         id="path4234"
         d="m 4368,9400 -1504,0 c 0,-192 109.5,-46.5 221.5,-158.5 112,-112 -34.5,-182 125.5,-262 160,-80 228.5,-28 356.5,-28 128,0 192.5,176.5 288.5,144.5 96,-32 192,32 64,-160 -128,-192 -323.5,-126 -291.5,-318 32,-192 171.5,-287.5 235.5,-159.5 64,128 66.2009,272.4977 172,339 105,66 144.4794,21.0537 188,43 43.5206,21.9463 2.5,129.5 82.5,225.5 80,96 134.1537,107.2098 141.5,174 7.3463,66.7902 -80,160 -80,160 z"
         style="display:inline;opacity:1;fill:#b3b3b3;fill-opacity:1;fill-rule:evenodd;stroke:none;stroke-width:1px;stroke-linecap:butt;stroke-linejoin:miter;stroke-opacity:1" />
      <path
         id="path4237"
         d="m 4882.5,8766.5 c 0,56 59,58.5 59,154.5 0,96 45,142.5 -83,158.5 -128,16 -266.5,-63.5 -314.5,-175.5 -48,-112 -52,-146.5 12,-226.5 64,-80 105.7966,-10.4599 196,-189.5 66,-131 47.5,-208 -31,-204 -187.0325,9.5303 -126.4259,-23.4176 -199,-72 -59.4295,-39.7832 -90.5,4.5 -148.5,-77 -74.7944,-105.099 133,-193 245,-209 112,-16 122.5,-27.5 189.5,-115.5 129.3118,-169.8424 207.5,-115.5 287.5,-35.5 80,80 101.9591,157.5887 194.5,94.5 239.664,-209.5839 283.1329,-182.4258 371.5,-63 88.3671,119.4258 303.0196,218.0379 367,384.5 63.9804,166.4621 161.8473,154.3561 266,252.5 104,98 219,252.5 57.5,290 -218.1951,50.6645 -274.5,139.5 -450.5,11.5 -176,-128 -123.1015,-309.8607 -282.5,-296 -57.5,5 -80.7435,-121.2908 -184.5,-10.5 -59,63 66.5,192 -157.5,176 -224,-16 -184.5,-31.5 -264.5,32.5 -80,64 -130,63.5 -130,119.5 z"
         style="display:inline;opacity:1;fill:#b3b3b3;fill-opacity:1;fill-rule:evenodd;stroke:none;stroke-width:1px;stroke-linecap:butt;stroke-linejoin:miter;stroke-opacity:1" />
      <path
         id="path4240"
         d="m 6464.5,7325 c -120,40 -173.7246,285.3019 -336.5,260 -96.5,-15 -403.5,5.5 -307.5,101.5 96,96 198.8185,192.0656 226,286 41.3228,142.8038 130,54.5 322,-25.5 192,-80 57.4608,-176.0498 235,-218 118.5,-28 111.5,-98 15.5,-194 -96,-96 -34.5,-250 -154.5,-210 z"
         style="display:inline;opacity:1;fill:#b3b3b3;fill-opacity:1;fill-rule:evenodd;stroke:none;stroke-width:1px;stroke-linecap:butt;stroke-linejoin:miter;stroke-opacity:1" />
      <path
         id="path4243"
         d="m 6736,6184 c -187.5,79 -389.3366,368.3973 -295.5,420.5 181,100.5 149.3765,187.9443 391.5,187.5 272.5,-0.5 384,96 640,16 256,-80 495.5,-298.5 472.5,-145.5 -31.7332,211.0948 -121.5,384.5 -26,402 125.9036,23.0713 321.5,15.5 529.5,-0.5 208,-16 336,-48 336,-160 0,-112 16,-272 -80,-320 -96,-48 -128,16 -288,-16 -160,-32 -371.5,-91 -371.5,-203 0,-112 3.5,-277 3.5,-469 0,-192 -41,-469.5 -233,-261.5 -192,208 -151,309.5 -343,357.5 -192,48 -128,48 -304,48 -176,0 -432,144 -432,144 z"
         style="display:inline;opacity:1;fill:#b3b3b3;fill-opacity:1;fill-rule:evenodd;stroke:none;stroke-width:1px;stroke-linecap:butt;stroke-linejoin:miter;stroke-opacity:1" />
      <path
         id="path4246"
         d="m 3328,2632 c -96,80 -192,16 -224,144 -32,128 -240,320 -112,448 128,128 240,-48 304,112 64,160 44,97.5 11.5,245 -38.4921,174.695 -129,55 -129,199 0,144 -91.5,150.5 36.5,246.5 128,96 321,141.5 321,-18.5 0,-160 -155.0771,-171.7605 -59.5,-269.5 C 3587,3625.5 3763,3522 3587,3394 c -176,-128 -99,-218 45,-298 144,-80 240,-96 160,-208 -80,-112 -208,-112 -304,-192 -96,-80 -160,-64 -160,-64 z"
         style="display:inline;opacity:1;fill:#b3b3b3;fill-opacity:1;fill-rule:evenodd;stroke:none;stroke-width:1px;stroke-linecap:butt;stroke-linejoin:miter;stroke-opacity:1" />
      <path
         id="path4249"
         d="m 2640,2504 c 80,160 224,304 80,320 -144,16 -160,-144 -272,-64 -112,80 -145,-60.5 -209,51.5 -64,112 -21.5,307.5 -114.5,323.5 -141.0363,24.2643 -156.5,-23 -236.5,-55 -80,-32 -32,96 -144,96 -112,0 -224,48 -272,-64 -48,-112 -160,-112 -160,-112 0,0 -48,16 -160,-48 -112,-64 -96,32 -112,-176 -16,-208 -144,-464 -16,-496 128,-32 144,-176 304,-32 160,144 304,336 464,304 160,-32 272,16 384,-128 112,-144 16,-320 176,-256 160,64 288,336 288,336 z"
         style="display:inline;opacity:1;fill:#b3b3b3;fill-opacity:1;fill-rule:evenodd;stroke:none;stroke-width:1px;stroke-linecap:butt;stroke-linejoin:miter;stroke-opacity:1" />
      <path
         id="path4271"
         d="m 4118,3697 c -11,-101.75 -121.5,-325 -201.5,-133 -80,192 105,362 -39,426 -144,64 -337.8903,274.9405 -193.5,402.5 163,144 160,8.5 272,-22 117.5709,-32.0171 363.5,88 299.5,-72 -64,-160 -114.5,-171.5 -34,-267.5 102.8059,-122.6008 98.5,-135 178.5,-103 80,32 112,144 208,64 96,-80 -80,-256 96,-256 176,0 464,-48 352,96 -112,144 -363.5,186 -251.5,378 112,192 -31,344.5 214,290.5 210.2125,-46.3326 236,-273 331.5,-206 99.7517,69.9829 26,305.5 138,305.5 112,0 80,48 160,-176 80,-224 43,-277.5 186,-173 242.712,177.3665 -36.3443,223.1946 168.5,318 232.3245,107.5237 509.5,111 557.5,-33 48,-144 192,-384 0,-400 -192,-16 -224,160 -304,48 -80,-112 154.004,-261.8966 -46.5,-319.5 -181,-52 -143.1902,-201.0599 -288.5,-123 -108.5394,58.3069 -49,266.5 -193,170.5 -144,-96 -96,-64 -224,-176 -128,-112 -144,32 -272,-112 -128,-144 -192,-112 -208,-272 -16,-160 96,-320 -64,-320 -160,0 -64,272 -208,320 -144,48 -112,176 -208,128 -96,-48 -87.1889,-193.7839 -225.5,-142.5 -133.5,49.5 36.9371,302.6489 7,358 -29.9371,55.3511 -196.5,103.25 -207.5,1.5 z"
         style="display:inline;opacity:1;fill:#b3b3b3;fill-opacity:1;fill-rule:evenodd;stroke:none;stroke-width:1px;stroke-linecap:butt;stroke-linejoin:miter;stroke-opacity:1" />
      <path
         id="path4274"
         d="m 7179.5,2522 c 0,64 -64.5,97 122,205 223.2596,129.2871 266.5,241 410.5,193 144,-48 272,-64 272,-208 0,-144 80,-144 -112,-224 -192,-80 -176,-240 -288,-192 -112,48 -144,80 -208,128 -64,48 -196.5,34 -196.5,98 z"
         style="display:inline;fill:#b3b3b3;fill-opacity:1;fill-rule:evenodd;stroke:none;stroke-width:1px;stroke-linecap:butt;stroke-linejoin:miter;stroke-opacity:1" />
      <path
         id="path4277"
         d="m 7646,3744.5 c -32.8731,49.1436 2,263.5 130,263.5 128,0 220.5,12 220.5,76 0,64 -53,40 -37,184 16,144 -7.5,220 120.5,236 128,16 256,128 256,32 0,-96 0,-112 -16,-224 -16,-112 -160,-32 -144,-128 16,-96 48,-32 96,-192 48,-160 78,-132.5 30.5,-184.5 C 8170.779,3663.3002 8048,3704 7984,3656 c -64,-48 -64,-80 -160,-48 -96,32 -148.0135,91.6717 -178,136.5 z"
         style="display:inline;fill:#b3b3b3;fill-opacity:1;fill-rule:evenodd;stroke:none;stroke-width:1px;stroke-linecap:butt;stroke-linejoin:miter;stroke-opacity:1" />
      <path
         id="path4280"
         d="m 8288,3272 c -37,47 -16,192 144,272 160,80 374,-41.5 374,102.5 0,144 -63.9409,128.6651 -47.5,249.5 25.6881,188.7992 67.5,222.5 113,278.5 100.8948,124.1782 148,95 180,191 32,96 -86,273.5 106,353.5 192,80 195,-80 387,-80 192,0 311,98 311,-78 0,-176 -109.9174,-28.985 -222.5,-168 -57.5,-71 -43.1493,-109.7368 -70,-203.5 -47.2414,-164.968 -61.5027,-151.8716 -155,-151 -147.9886,1.3796 -191,81 -256,-14.5 -72.0211,-105.8157 48,-112 96,-208 48,-96 144,-256 -32,-272 -176,-16 -112,-32 -208,-80 -96,-48 -64,-96 -192,-160 -128,-64 -160,-64 -240,-64 -80,0 -251,-15 -288,32 z"
         style="display:inline;fill:#b3b3b3;fill-opacity:1;fill-rule:evenodd;stroke:none;stroke-width:1px;stroke-linecap:butt;stroke-linejoin:miter;stroke-opacity:1" />
      <path
         id="path4283"
         d="m 5120,1208 c -176,16 -112,-48 -304,16 -192,64 -320,64 -320,176 0,112 112,80 160,160 48,80 176,160 64,208 -112,48 -272,-64 -336,64 -64,128 -192,192 -128,320 64,128 240,128 432,128 192,0 496,128 480,-16 -16,-144 -288,-192 -160,-256 128,-64 752,-32 896,-32 144,0 1184,-160 1360,-32 176,128 320,96 448,96 128,0 384,-96 448,16 64,112 32,224 144,272 112,48 158.5,209.5 222.5,225.5 64,16 555.5,140.5 683.5,124.5 128,-16 582,-14 726,-14 144,0 608,48 736,64 128,16 1520,-96 1520,-96 0,0 496,0.5 704,80.5 208,80 504,47.5 504,47.5 l 0,-208 c 0,0 15.5,-150 -128.5,-134 -144,16 -112,-95 -224,-111 -112,-16 -155.5,-118.5 -299.5,-86.5 -144,32 -236,59.5 -236,59.5 0,0 -93,116 -333,-12 -240,-128 -347.5,75.5 -571.5,27.5 -224,-48 -449.5,100.5 -609.5,-59.5 -160,-160 -488.729,-238.2204 -567.5,-113.5 -72,114 -179,120.5 -291,168.5 -112,48 -265,34.5 -265,34.5 0,0 -104,-136 -296,-120 -192,16 -291.463,172.7547 -410,-3 C 9082.7281,2075.3262 9104,2037 8928,2021 c -176,-16 -208,51 -384,-93 -176,-144 -244,-130.5 -356,-194.5 -112,-64 -252,-141.5 -396,-141.5 -144,0 -320,-160 -496,-144 -176,16 -176,-80 -480,32 -304,112 -720,96 -896,48 -176,-48 -384,-240 -528,-272 -144,-32 -272,-48 -272,-48 z"
         style="display:inline;opacity:1;fill:#a46a44;fill-opacity:1;fill-rule:evenodd;stroke:none;stroke-width:1px;stroke-linecap:butt;stroke-linejoin:miter;stroke-opacity:1" />
      <path
         id="path4286"
         d="m 10384,4950.5 c -56,-24 -201.445,-145.7114 -274,-50 -44.023,58.074 24.344,160.3663 133,253.5 45.5,39 22.5,98.5 93,166 109.028,104.3884 255.782,50.6461 416,256 140.59,180.1968 150.623,234.2075 392,246 273.55,13.3642 376,122 456,-6 80,-128 48,-288 144,-304 96,-16 212.423,-0.4602 180.5,-109 -25,-85 -228.5,61 -212.5,-67 16,-128 48,-64 144,-128 96,-64 47,-158 224,-160 116.474,-1.3161 173.5,10 253.5,-150 80,-160 183,-76 223,-219.5 68.738,-246.5989 -110.5,-135.5 -89.5,-263.5 25.904,-157.8892 173,-103 237,-151 64,-48 301.5,-115.5 262.5,-193.5 -102.45,-204.9 -550.5,-270.5 -630.5,-30.5 -80,240 -16,496 -288,496 -272,0 -205,69.5 -253,-170.5 -48,-240 -50.5,-274.5 -178,-241 -230.049,60.4442 -74.5,334 -245.5,263 -185.154,-76.8768 68.5,-123.5 -107.5,-219.5 -176,-96 -384,-256 -480,-160 -96,96 -218.5,137.5 -96,190.5 224.63,97.1869 87.249,25.5173 202.5,136.5 81,78 -4,85 133.5,153 219.39,108.4985 244.5,110 308.5,110 64,0 282.5,-119.5 332,121.5 36.703,178.6977 -0.5,344.5 -128.5,472.5 -128,128 -38.046,304.0283 -245.5,326 -203,21.5 -282.5,30 -298,-139 -13.473,-146.8962 191.5,-203 63.5,-315 -128,-112 -208,-96 -336,16 -128,112 -280,-105.5 -336,-129.5 z"
         style="display:inline;opacity:1;fill:#a46a44;fill-opacity:1;fill-rule:evenodd;stroke:none;stroke-width:1px;stroke-linecap:butt;stroke-linejoin:miter;stroke-opacity:1" />
      <path
         id="path4292"
         d="m 5072,4920 c -80,0 -188.5,-176 -188.5,64 0,240 -111,376 -9.5,378.5 164.6801,4.0562 156,-93 214,-90.5 150.8037,6.5002 -32,144 144,192 176,48 80,144 192,208 112,64 76.3023,-76.8528 249,64 70.5,57.5 86.5,109.5 188,123.5 143.5273,19.7969 22,54.5 134,134.5 112,80 70.5,189 263.5,182.5 208.4963,-7.0219 252,26.5 331.5,-39.5 77.8588,-64.6375 -31.088,-159.9009 -4,-252 27.5,-93.5 4,-125 87,-156 203.868,-76.1435 143,263 255,263 112,0 220,-46.5 220,-126.5 0,-80 -69.5,-50 -117.5,-162 -48,-112 -214.5,-63.5 -230.5,-175.5 -16,-112 48,-144 112,-208 64,-64 96,-32 208,-96 112,-64 372,100.5 304,-80 -86.1015,-228.5488 -240,-400 -336,-352 -96,48 80,208 -112,160 -192,-48 -208,-160 -288,-16 -80,144 119.542,364.6951 -31,310.5 -62.5,-22.5 -139.5,-68.5 -238.5,23 -149.5534,138.2236 -71,307 -199,307 -128,0 -107,83 -161.5,-43 -71.0165,-164.1848 78,-318.5 -50,-334.5 -128,-16 -115.5,63 -243.5,111 -128,48 -60.0255,188.2601 -215.5,158 -74.5,-14.5 -28.9714,-71.279 -59.5,-279.5 -19.5,-133 -47,-179 -129.5,-172.5 -160.3012,12.6298 -288,-96 -288,-96 z"
         style="display:inline;fill:#a46a44;fill-opacity:1;fill-rule:evenodd;stroke:none;stroke-width:1px;stroke-linecap:butt;stroke-linejoin:miter;stroke-opacity:1" />
      <path
         id="path4298"
         d="m 6896,7895 c 48,88 240,257 320,145 80,-112 48,-160 128,-240 80,-80 181,-134.5 277,-134.5 96,0 234,65.5 330,49.5 96,-16 183,-114.5 215,-178.5 32,-64 90,-104.5 218,-136.5 128,-32 288,112 304,-32 16,-144 -16,-160 64,-240 80,-80 192,-320 64,-320 -128,0 -208,-64 -320,32 -112,96 -147.5261,83.9998 -186.5,189 -42.5,114.5 23.1951,161.8035 -149,168.5 -90,3.5 -211,-4 -275,92 -64,96 -187.0434,-9.0086 -320,80 -322.1879,169.0429 -216.9117,10.6 -401.5,-8.5 -191.9451,-4.592 -143,143 -191,255 -48,112 -125,191 -77,279 z"
         style="display:inline;fill:#617400;fill-opacity:1;fill-rule:evenodd;stroke:none;stroke-width:1px;stroke-linecap:butt;stroke-linejoin:miter;stroke-opacity:1" />
      <path
         id="path4295"
         d="m 7003,7569 c 24,63 -15.5,185.5 134.5,228.5 156.851,44.964 150.1345,155.7427 383,162.5 224,6.5 290,209 434,113 144,-96 289,14 433,30 144,16 472.393,-199.3388 415.5,-314 -32.5,-65.5 -71.4716,-33.4619 -108.5,-137 -37.8181,-105.7464 -44.426,-90.9075 39,-168.5 42.9687,-39.9642 91.5,-105 50.5,-163.5 -77.9196,-111.178 -208,-224 -336,-128 -128,96 -11.5,336 -139.5,448 -128,112 -339,155.5 -435,59.5 -175.6844,-177.5475 -160.561,-263.5557 -357.5,-301.5 -224,80 -168,-21 -344,-101 -176,-80 -302,-119.5 -302,56.5 0,176 109,152.5 133,215.5 z"
         style="display:inline;fill:#a46a44;fill-opacity:1;fill-rule:evenodd;stroke:none;stroke-width:1px;stroke-linecap:butt;stroke-linejoin:miter;stroke-opacity:1" />
      <path
         id="path4320"
         d="m 10331,7390 c -62,44 90.5,384.5 173,426 72.883,36.6622 153.5,-61 249.5,-61 96,0 110.5,-35 206.5,93 96,128 103.5,170.5 247.5,170.5 144,0 171.5,-30 315.5,-46 144,-16 413,35.5 413,-76.5 0,-112 191.792,-270.8957 99,-370 -73.5,-78.5 -116,-185.5 -241,-112.5 -130.344,76.121 -2,233 -98,249 -96,16 -166.561,192.6459 -249,73.5 -68.5,-99 -77,-67.5 -173,-83.5 -96,-16 -170,-182 -229.5,-192 -135.734,-22.8124 -169,85 -216,36 -126.281,-131.655 -167,-103.5 -214.5,-66.5 -67.974,52.9483 -221,-84 -283,-40 z"
         style="display:inline;fill:#a46a44;fill-opacity:1;fill-rule:evenodd;stroke:none;stroke-width:1px;stroke-linecap:butt;stroke-linejoin:miter;stroke-opacity:1" />
      <path
         id="path4323"
         d="m 11185,8450.5 c -176,0 -326,28 -262,140 64,112 261.5,103 357.5,87 372.426,-38.4129 263.637,144.9637 417,203.5 240,16 301,226.5 429,146.5 128,-80 96.5,-473 240.5,-361 144,112 -31,557.5 113,589.5 144,32 208,-48 304,-48 96,0 128,192 128,192 l 488,10e-5 0,-416.0001 c 0,0 -56,96 -184,80 -128,-16 -304,160 -352,0 -48,-160 -256,-48 -256,-192 0,-144 64,-96 64,-240 0,-144 96,-112 0,-272 -96,-160 -218.5,-264.5 -394.5,-168.5 -176,96 -72.5,321 -312.5,257 -240,-64 -197.5,-240 -400,-171.5 -151.49,112.6855 -273.663,172.3001 -380,173.5 z"
         style="display:inline;opacity:1;fill:#a46a44;fill-opacity:1;fill-rule:evenodd;stroke:none;stroke-width:1px;stroke-linecap:butt;stroke-linejoin:miter;stroke-opacity:1" />
      <path
         id="path4383"
         d="m 303.5,2346 c -5.33224,54.1807 -70,117 26,181 96,64 178.02272,-172.583 251,-197.5 72.97728,-24.917 165.81514,68.2596 247.5,-47 20.56629,-35.107 44.31381,-163.9228 -28,-242.5 -64,-64 -94.61503,-13.9631 -212,-65 0,0 -114.11307,-44.9655 -171,8 -56.88693,52.9655 -0.72048,148.0047 -74.5,207 -73.77952,58.9953 -33.66776,101.8193 -39,156 z"
         style="display:inline;fill:#a46a44;fill-opacity:1;fill-rule:evenodd;stroke:none;stroke-width:1px;stroke-linecap:butt;stroke-linejoin:miter;stroke-opacity:1" />
      <path
         id="path4329"
         d="m 2828,5361 c -208,-96 -193,-99 -289,-99 -96,0 -123,-118 -283,-198 -160,-80 -224,-96 -272,64 -48,160 154.5,249.5 218.5,249.5 64,0 226,39 242,231 16,192 -108.5,95.5 -172.5,159.5 -64,64 -238.5,231.5 -46.5,343.5 192,112 381.5,64 378.5,150.5 -4.9603,143.0224 -12.5,202 -114,176.5 -222.1807,-55.8188 -268,-94 -320.5,-35.5 -64.1193,71.4473 9.5,192 105.5,192 96,0 185.5,-13.5 217.5,82.5 32,96 131.638,128.2176 170.5,216 42.5,96 148,25 242.5,67.5 175.1063,78.7515 185,199 313,135 128,-64 171.6965,-236.9676 250.5,-171.5 65,54 151.5,35.5 226.5,-11.5 165.4941,-103.7097 407.1309,-176.7514 521,-80.5 185.5735,156.8619 109.5,288.5 301.5,288.5 192,0 208,-268 400,-268 192,0 317.5,24.5 445.5,8.5 128,-16 301.0746,39.3249 316.5,-117.5 9,-91.5 6.5,-205 132,-171.5 201.5573,53.8021 335.4704,209.8915 400.5,109 63.8793,-99.1067 -6.9189,-217.7308 -44,-307 -37.0811,-89.2692 -94,-121.5 -225.5,-119 -360.3055,-16.0083 -162.8612,-250.7228 -162.5,-322 0,-208 -111,-280.5 -195.5,-184 -84.9801,97.0483 -149,22.5 -309,150.5 -160,128 -215.5,21 -263.5,149 -48,128 35.5,150 -124.5,198 -160,48 -122.4615,-127.8077 -231.5,-100.5 -94.5791,23.6865 -182.1792,-30.2786 -205,73 -37.0315,167.5913 291.6091,271.3549 120,375 -101,61 -250.5,138.5 -338.5,10.5 -77.4468,-112.6499 -101,-99.5 -233,-53 -190.8878,67.2446 -208,48 -432,64 -224,16 -265,72 -441,72 -176,0 -376.9358,-11.7395 -383.5,-52 -6.5642,-40.2605 145.5,-63 145.5,-191 0,-128 -111,-177 -31,-225 80,-48 70,-180 182,-52 112,128 160,320 304,272 144,-48 32,-208 288,-208 256,0 448,80 416,-64 -32,-144 48,-240 -96,-320 -144,-80 -67,-8 -163,-168 -96,-160 -168,29.5 -194.5,-107 -32.9832,-169.8944 166,-150.5 310,-166.5 144,-16 182.7068,29.856 262.5,-71.5 82.1655,-104.3695 58.9641,-33.9642 191,-140.5 117.0787,-94.4673 28,-158 132,-259.5 112.7743,-110.0634 283.1812,-56.1509 232,-194.5 -32,-86.5 -18.2766,-236.548 -118.5,-184 -193.5585,101.4845 -291.9199,34.7948 -364,69.5 -67.5,32.5 -55.1746,118.9998 -127.5,206 -34.5,41.5 -51.5,108 -163.5,204 -112,96 -220.5,44 -252.5,92 -32,48 -48,32 -160,160 -112,128 -139.5,97 -235.5,97 -96,0 -158,184.5 -286,152.5 C 2886.5,5505.5 2828,5361 2828,5361 Z"
         style="display:inline;fill:#005e22;fill-opacity:1;fill-rule:evenodd;stroke:none;stroke-width:1px;stroke-linecap:butt;stroke-linejoin:miter;stroke-opacity:1" />
      <path
         id="path4332"
         d="m 9975,6826.5 c 0,48 119.889,193.7274 -7,221.5 -126.8888,27.7726 -203.1744,-50.2238 -295,-113.5 -180.4235,-94.339 -96.6573,-222.4498 63,-230 64,0 92.5,-68 140.5,-68 48,0 111,-84 191,-84 80,0 196,26.5 196,-69.5 0,-96 35,-115.5 -27.5,-155.5 -67.382,-43.1243 -148,96.5 -228,96.5 -80,0 -200,32 -200,-64 0,-96 14.5,-195.5 110.5,-195.5 96,0 212,-72.5 356,-40.5 144,32 311.359,80.4617 372,60 81.5,-27.5 212.5,280 324.5,216 112,-64 105.805,-376.2283 213,-312 121,72.5 19.784,174.9504 179,256.5 102.5,52.5 102,138 182.5,106.5 74.499,-29.1519 1.5,-60.5 1.5,-188.5 0,-128 47,-168.5 191,-152.5 144,16 253.5,64.5 349.5,96.5 96,32 346,-78 346,50 0,128 125.5,361 -50.5,361 -176,0 -155.5,-39.5 -267.5,-135.5 -234.742,-224.3001 -226.284,33.9541 -305,73.5 -160,80 -216,53 -216,133 0,80 2,242 -174,242 -176,0 -238.5,229.5 -350.5,117.5 -112,-112 82,-160 -46,-256 -128,-96 -192,-176 -256,-80 -64,96 53,216 -59,264 -112,48 -205,204 -328.5,68 -134.776,-148.4168 -42,-208.5 -138,-240.5 -74.91,-26.3724 -262.0532,-97.994 -267.5,23 z"
         style="display:inline;fill:#005e22;fill-opacity:1;fill-rule:evenodd;stroke:none;stroke-width:1px;stroke-linecap:butt;stroke-linejoin:miter;stroke-opacity:1" />
      <path
         id="path4335"
         d="m 12759,6613 c -40,40 -207.5,97.5 -143.5,209.5 64,112 187.5,267 283.5,155 96,-112 -44.337,-226.2324 128,-200.5 172.337,25.7324 303.677,-87.0841 175,-133.5 -160,-48 -148.111,-138.3956 -234.5,-135 -86.389,3.3956 -168.5,64.5 -208.5,104.5 z"
         style="display:inline;fill:#005e22;fill-opacity:1;fill-rule:evenodd;stroke:none;stroke-width:1px;stroke-linecap:butt;stroke-linejoin:miter;stroke-opacity:1" />
      <path
         id="path4338"
         d="m 13400,7320 c -144,32 -274.237,-0.9671 -386.5,-15 -100,-12.5 -163.5,127.5 -128,175 55.851,74.7305 72.5,145 17.5,192.5 -60.546,52.2896 -128.227,-109.9498 -247,-128.5 -154.658,-24.1546 -59.278,161.4192 -118,261 -48,96 -104.5,211 -3,236 139.821,34.4387 235.323,173.2382 298,8 44,-116 -19.5,-136.5 37,-167 133.57,-72.1042 162,125 258,109 256.625,-28.419 67.836,-199.2299 119,-248.5 83.5,-56.5 153,57.5 153,57.5 z"
         style="display:inline;fill:#005e22;fill-opacity:1;fill-rule:evenodd;stroke:none;stroke-width:1px;stroke-linecap:butt;stroke-linejoin:miter;stroke-opacity:1" />
      <path
         id="path4367"
         d="m 2120.5,7677.5 c -137.5776,60.3499 -80.2298,227.772 26.5,238.5 192,16 141,-20 237,-36 96,-16 160,48 96,192 -64,144 -112,320 32,320 144,0 240,-48 256,-224 16,-176 48,-224 128,-224 80,0 136,-47.5 136,-159.5 0,-112 -6.749,-148.8215 -105.5,-179 -128.8233,-39.3687 -210.5,56.5 -277.5,-15 -100.865,-107.6395 127,-342.5 63,-390.5 -64,-48 -231.8343,-34.0517 -307.5,36.5 -43.6512,40.701 16.1306,177.7436 -68.5,240.5 -84.6306,62.7564 -77.9224,140.1501 -215.5,200.5 z"
         style="display:inline;fill:#005e22;fill-opacity:1;fill-rule:evenodd;stroke:none;stroke-width:1px;stroke-linecap:butt;stroke-linejoin:miter;stroke-opacity:1" />
      <path
         id="path4370"
         d="m 2263,9171 c 48,128 129.8532,118.4815 235.5,78 107,-41 -11,-108 117,-156 128,-48 136.2702,22.226 233.5,-13 196.5666,-71.2154 159,-145 196.5,-186.5 C 3155.9425,8771.277 3025,8675 2929,8675 c -96,0 -91.5,66.5 -188,116.5 -146.2628,75.7838 -168.169,-20.7307 -299,-2.5 -130.831,18.2307 -11.5,229 -111.5,185 -164.3976,-22.9174 -110.967,112.8142 -67.5,197 z"
         style="display:inline;fill:#005e22;fill-opacity:1;fill-rule:evenodd;stroke:none;stroke-width:1px;stroke-linecap:butt;stroke-linejoin:miter;stroke-opacity:1" />
      <path
         id="path4374"
         d="m 6801.5,6472 c 80,48 30.5,160 190.5,176 160,16 352,128 432,16 80,-112 129,-104.5 129,-392.5 0,-288 98,-377 -84.5,-534.5 -60.5645,-52.268 -233.5,-37 -345.5,11 -112,48 1.235,241.22 -73.5,290.5 -74.735,49.28 -149,46.5 -229,110.5 -159.111,96.3414 -154.3114,238.5823 -19,323 z"
         style="display:inline;fill:#005e22;fill-opacity:1;fill-rule:evenodd;stroke:none;stroke-width:1px;stroke-linecap:butt;stroke-linejoin:miter;stroke-opacity:1" />
      <path
         id="path4377"
         d="m 9840,5432 c 226.237,259.6685 -103.0952,188.1994 -169,173.5 -97,-21.5 -253.5,35 -173.5,115 80,80 118.5,255.5 -73.5,191.5 -192,-64 -302,141 -318,-83 -16,-224 -143,-331.5 -47,-363.5 96,-32 18,-229.5 290,-213.5 272,16 310,-13.5 374,50.5 64,64 117,129.5 117,129.5 z"
         style="display:inline;fill:#005e22;fill-opacity:1;fill-rule:evenodd;stroke:none;stroke-width:1px;stroke-linecap:butt;stroke-linejoin:miter;stroke-opacity:1" />
      <path
         id="path4380"
         d="m 11200,8248 c -176,-16 -160.787,32.5865 -256,-96 -48.5,-65.5 -171,-49.5 -171,-145.5 0,-96 16.5,-116.5 97.5,-148.5 94.115,-37.1811 64.796,-111.7851 117.5,-124.5 121.255,-29.2531 94.5,115.5 177.5,99 156.929,-31.1968 121.885,1.9129 214.5,118 92.615,116.0871 31.732,313.9363 -180,297.5 z"
         style="display:inline;fill:#005e22;fill-opacity:1;fill-rule:evenodd;stroke:none;stroke-width:1px;stroke-linecap:butt;stroke-linejoin:miter;stroke-opacity:1" />
      <path
         id="path4386"
         d="m 352,248.00001 c -16,112 60,324 60,388 0,64 -53.28268,220.42933 26.5,231.5 92.40982,12.82282 41.5,21.5 249.5,37.5 208,16 205,68.99999 330,-11.5 126.9046,-81.72654 120.5682,-155.29126 -26.5,-229.5 -109,-55 -83,-55 -195,-40 -141.86393,-15.31427 40.71566,-190.06337 35.5,-248 0,-160 -51,-148 -115,-212 -155.3443,-97.387059 -349.73193,-11.10696 -365,84 z"
         style="display:inline;fill:#b3b3b3;fill-opacity:1;fill-rule:evenodd;stroke:none;stroke-width:1px;stroke-linecap:butt;stroke-linejoin:miter;stroke-opacity:1" />
      <path
         id="path4389"
         d="m 529,1083 c 96,176 79,93 207,157 128,64 301,21.5 301,165.5 0,144 -56,257 -184,225 -128,-32 -146.11722,26.3358 -204.5,-55.5 -37.53151,-52.6083 5.79743,-105.7992 -99,-144.5 -90.66367,-33.4813 -55.65245,-104.8073 -167,-161 C 271.15245,1213.3073 463.08878,967.40498 529,1083 Z"
         style="display:inline;fill:#b3b3b3;fill-opacity:1;fill-rule:evenodd;stroke:none;stroke-width:1px;stroke-linecap:butt;stroke-linejoin:miter;stroke-opacity:1" />
      <path
         id="path4392"
         d="m 2847,1884 c 370.2589,-26.4386 300.7715,-12.7382 525.5,42.5 224.7285,55.2382 312.5,149.5 392.5,101.5 80,-48 235,28 203,-148 -32,-176 -96.5,-248.5 15.5,-280.5 112,-32 208.5,72.5 352.5,72.5 144,0 160,96 272,0 112,-96 246.5,-183 246.5,-279 0,-96 -38,-181 -102,-197 -64,-16 -62.5,-16.5 -190.5,47.5 -128,64 -331.3884,167.4209 -338,44.5 -4.5753,-85.0622 155.5,-59 171.5,-219 16,-159.99999 36.5,-156.99999 -75.5,-180.99999 -110.6257,-23.70551 -176,80 -272,80 -96,0 -272,-176 -256,16 C 3808,1176 3939.5,1174.5 4012,1284 c 47.5671,71.8427 1,94.5 -135.5,137.5 -140.6967,44.322 -176,-44.5 -249.5,-12 -147.0626,65.0277 78,193.5 -115.5,212 -262.6809,25.1142 -213.6685,-131.0791 -382,-102.5 -93.227,15.828 -100.0201,163 -183.5,163 -83.4799,0 -191.0256,-138.4819 -242,-106 -50.9744,32.4819 32.9718,317.531 143,308 z"
         style="display:inline;fill:#b3b3b3;fill-opacity:1;fill-rule:evenodd;stroke:none;stroke-width:1px;stroke-linecap:butt;stroke-linejoin:miter;stroke-opacity:1" />
      <path
         id="path4414"
         d="m 3884,738.00001 c 102.5215,-1.86882 141,-122 237,-122 96,0 27.1905,83.07619 284,77 101.1646,-2.39358 131.5,-312.5 67.5,-376.5 -64,-64 -255.5,80 -335.5,80 -80,0 -105,-68.5 -201,-68.5 -96,0 -157,-41.5 -205,22.5 -48,64 -115,190.5 -211,110.5 -96,-80 -30,-264 -158,-216 -128,48 -173,14 -253,14 -80,0 -97.3563,90.05499 -149,149 -55.8246,63.71702 -35,86 -85.5,131.5 -101.5613,91.50574 -96.635,18.69808 -152.5,98.5 -59.3687,84.80689 126,202 190,122 64,-80 75.6533,-80.31971 154,-96.5 213.7942,-92.49386 153.8417,188.83682 316.5,100.5 162.6583,-88.33682 398.9785,-24.13118 501.5,-26 z"
         style="display:inline;fill:#b3b3b3;fill-opacity:1;fill-rule:evenodd;stroke:none;stroke-width:1px;stroke-linecap:butt;stroke-linejoin:miter;stroke-opacity:1" />
      <path
         id="path4417"
         d="m 4848,328.00001 c -128,96 -45,194.5 -109,226.5 -64,32 -152.5,65 -115,180 55.4582,170.07172 144,73.5 240,25.5 96,-48 122.962,-22.94785 123.5,-94.5 0.5,-66.5 -36.5,-228 91.5,-196 128,32 187.8788,-142.8711 93,-157.5 -113.5,-17.5 -117,-116.5 -180,-64 -71.6714,59.72615 -144,80 -144,80 z"
         style="display:inline;fill:#b3b3b3;fill-opacity:1;fill-rule:evenodd;stroke:none;stroke-width:1px;stroke-linecap:butt;stroke-linejoin:miter;stroke-opacity:1" />
      <path
         id="path4420"
         d="m 5407.5,670.00001 c -122.1129,28.24023 -95.5,74 -95.5,186 0,112 -16,175.99999 80,159.99999 96,-16 128,-127.99999 128,-127.99999 0,0 48,-112 128,-96 80,16 48,16 112,64 64,48 176,48 192,96 16,47.99999 -49.5172,146.75429 42,192.99999 91.5172,46.2457 180.8075,18.299 278,63 176,80 53.029,222.4954 240,176 94.5,-23.5 120.5,-31.5 192,-112 95.0348,-106.9972 176,-192 80,-256 -96,-63.99999 -96,48 -224,-47.99999 -128,-96 -160,-128 -224,-96 -64,32 -128,239.99999 -160,48 -32,-192 -96,-128 -16,-240 80,-112 192,-80 80,-192 -112,-112 -128,-272 -208,-176 -80,96 14,115 -66,195 -80,80 -192.196,131.18604 -204,-53.5 -11.804,-184.68604 -297.1273,-128.22673 -306,-45.5 -10,172 94.6686,38.15523 112,162 17.3314,123.84477 -38.3871,71.75977 -160.5,100 z"
         style="display:inline;fill:#b3b3b3;fill-opacity:1;fill-rule:evenodd;stroke:none;stroke-width:1px;stroke-linecap:butt;stroke-linejoin:miter;stroke-opacity:1" />
      <path
         id="path4423"
         d="m 8751.5,1593 c -21.9913,207.0784 75.6299,672.5255 258.5,584 182.8701,-88.5255 -9.8697,-226.6673 126,-377 135.8697,-150.3327 175,260.5 239,260.5 64,0 234.8807,65.5615 359,3.5 124.1193,-62.0615 203.0662,15.051 309,42.5 105.934,27.449 193.5,10 222,81 36.255,90.3193 43.297,88.6503 247.5,123 204.203,34.3497 248.998,46.3644 357.5,177.5 104.593,121.3581 51.52,236.1772 113,295 127,111 116.5,-28.5 269.5,16 98.302,119.0601 -60.034,118.5403 -45.5,244.5 14.534,125.9597 137,80 205.5,158.5 89.263,102.2942 -20,163 76,291 107.844,157.3621 57.968,360.6495 307.5,321.5 249.532,-39.1495 354.959,172.0324 451,59 150.076,-178.9912 143.368,-139.4418 13,-248.5 -112,-96 -240.415,55.938 -266.5,-159 -26.085,-214.938 -102.384,-206.3826 -217.5,-258 -117.522,-95.5625 -0.02,-136.5821 -65,-280 -91.592,-192.8968 -179.006,-87.3607 -237.5,-199.5 -58.494,-112.1393 -55.671,-271.2231 -117.5,-289 -74.342,-21.312 -238.146,26.6681 -288.5,-40.5 -70.064,-93.5144 -56.902,-197.7551 -73,-258.5 -38.394,-144.6788 -89.163,-62.9201 -177,-222 -20.683,-46.1759 -32.033,-83.0639 30.5,-139 62.533,-55.9361 136.46,-97.7778 94.5,-193 -41.96,-95.2222 -170.487,46.3467 -189.5,-152 -19.013,-198.3467 -356.18,-211.4308 -455.5,-391 -146.594,-273.97975 220.177,-170.3181 336,-183.49999 115.823,-13.18189 188.676,-253.19836 20.5,-344 -168.176,-90.80164 -332.855,-133.07533 -417,-207.5 -160,-144 -514.518,-215.717876 -648,-47.5 -133.482,168.21788 -264.1029,274.32484 -187.5,412 76.6029,137.67516 -153.5,151 -249.5,55 -96,-96 13.5,-135 -210.5,-135 -224,0 -469.6144,-176.55691 -477.5,55 -4.5962,134.96712 138.1484,26.20991 187.5,130.5 26.5,56 -170.5604,197.19396 54,242.49999 114,23 237,-109.49999 334.5,-36.99999 143.5488,106.74139 342.8294,29.80149 300.5,219.49999 -42.3294,189.6985 -310.8914,5.5513 -412.5,31 -101.6086,25.4487 -154.5087,151.4216 -176.5,358.5 z"
         style="display:inline;fill:#b3b3b3;fill-opacity:1;fill-rule:evenodd;stroke:none;stroke-width:1px;stroke-linecap:butt;stroke-linejoin:miter;stroke-opacity:1" />
      <path
         id="path4426"
         d="m 9639.5,2407.5 c 22.1602,108.87 132.0019,200.0375 250,117.5 96.5,-67.5 272.567,30.2618 298,-59.5 17,-60 -88,-209 -184,-225 -96,-16 -184,-125.5 -216,-61.5 -88.8701,195.903 -170.1602,119.63 -148,228.5 z"
         style="display:inline;fill:#b3b3b3;fill-opacity:1;fill-rule:evenodd;stroke:none;stroke-width:1px;stroke-linecap:butt;stroke-linejoin:miter;stroke-opacity:1" />
      <path
         id="path4429"
         d="m 10083.5,2625.5 c 128,0 160,64 272,16 112,-48 224,48 160,96 -64,48 -124,19 -108,99 16,80 108,61 188,93 80,32 240,-16 240,80 0,96 -32,64 -112,128 -80,64 -149.5,128 -37.5,224 112,96 165.5,-16 165.5,144 0,160 64,352 -96,272 -160,-80 -182,-21.5 -230,-101.5 -48,-80 -161.47,-213.669 -58,-218.5 103.47,-4.831 -3.581,-140.0362 -27.5,-191.5 -53,-114 19.687,-145.9521 -84.5,-264.5 -104.187,-118.5479 -226.657,64.4835 -456,-147.5 -77.9443,-78.9585 132.244,-227.7264 184,-228.5 z"
         style="display:inline;fill:#b3b3b3;fill-opacity:1;fill-rule:evenodd;stroke:none;stroke-width:1px;stroke-linecap:butt;stroke-linejoin:miter;stroke-opacity:1" />
      <path
         id="path4432"
         d="M 10767.5,926.00001 C 10726.5,964 10623.5,1166 10735.5,1198 c 112,32 240,224 320,256 80,32 240,128 224,16 -16,-112 32,-144 -80,-208 -112,-64 -224,-16 -240,-96 -16,-80 0,-48 -32,-128 -32,-79.99999 -119,-149.99999 -160,-111.99999 z"
         style="display:inline;fill:#b3b3b3;fill-opacity:1;fill-rule:evenodd;stroke:none;stroke-width:1px;stroke-linecap:butt;stroke-linejoin:miter;stroke-opacity:1" />
      <path
         id="path4435"
         d="m 11088.5,358.50001 c -40,48 19,126 19,206 0,80 -77.5,147.5 19,214 129.756,89.4172 48,80 192,192 144,111.99999 225.438,189.59129 304,143.99999 78.562,-45.5913 16,-112 16,-207.99999 0,-96 6.202,-105.87418 -112,-160 -118.202,-54.12582 -223.902,-144.10222 -224,-240 0,-128 32,-96 -16,-160 -48,-64 -158,-36 -198,12 z"
         style="display:inline;fill:#b3b3b3;fill-opacity:1;fill-rule:evenodd;stroke:none;stroke-width:1px;stroke-linecap:butt;stroke-linejoin:miter;stroke-opacity:1" />
      <path
         id="path4438"
         d="m 11696,136.00001 c -64,48 -100.5,-1.5 -132.5,78.5 -32,80 -124,119.5 -11.5,177.5 148.474,76.54672 118,69.5 228,131 187.887,105.04572 133.5,184 229.5,280 96,96 143.5,30 207.5,94 64,64 87,102.99999 151,102.99999 154.401,-5.39864 -54.615,-208.19619 -32,-271.99999 48,-128 112,-144 80,-208 -32,-64 -112,-112 -208,-240 -96,-128 -128,-16 -128,-16 0,0 1.5,192 65.5,224 64,32 114.5,239 21,184.5 -127.443,-74.285 -231.5,-59 -231.5,-283 0,-224 81,-173.5 -15,-237.5 -96,-63.999995 -224,-16 -224,-16 z"
         style="display:inline;fill:#b3b3b3;fill-opacity:1;fill-rule:evenodd;stroke:none;stroke-width:1px;stroke-linecap:butt;stroke-linejoin:miter;stroke-opacity:1" />
      <path
         id="path4441"
         d="M 13400,376.00001 13400,1016 c 0,0 -94.82,-89.19157 -181,-80.49999 -86.18,8.69158 -54,199.99999 -182,231.99999 -128,32 -161,-23.5 -161,-87.5 0,-64 -5.5,-111.99999 58.5,-159.99999 241.597,-143.48697 150.384,-206.44922 45.5,-180 -104.884,26.44922 -178,200.49999 -285.5,81.5 -144.296,-159.73274 -209.142,-225.73442 -65,-238.5 144.142,-12.76558 175.712,81.31326 320.5,-67 128,-128 120.5,-123.5 200.5,-155.5 80,-32 249.5,15.5 249.5,15.5 z"
         style="display:inline;fill:#b3b3b3;fill-opacity:1;fill-rule:evenodd;stroke:none;stroke-width:1px;stroke-linecap:butt;stroke-linejoin:miter;stroke-opacity:1" />
      <path
         id="path4444"
         d="m 13400,2088 c -202.459,22.3789 -250.132,115.7322 -297.5,166.5 -47.368,50.7678 -249.979,141.8812 -296.5,40 -50,-109.5 -202,-193 -90,-289 112,-96 147,-154 211,-186 312.927,10.9298 395.517,-71.5347 356,-131 -70,-100.5 58,-115.5 35,-195.5 -41.707,-145.0674 -168.5,-61 -202.5,-154.5 -33.26,-91.4646 64,-114 128,-130 64,-16 156.5,-32.5 156.5,-32.5 z"
         style="display:inline;fill:#b3b3b3;fill-opacity:1;fill-rule:evenodd;stroke:none;stroke-width:1px;stroke-linecap:butt;stroke-linejoin:miter;stroke-opacity:1" />
      <path
         id="path4466"
         d="m 8132,5026.5 c -64,40 -193,126 -97,254 96,128 64,272 160,272 96,0 320,126 304,14 -16,-112 -64.1124,-148.8319 -30.5,-212 29,-54.5 110.5,-138 94.5,-218 -16,-80 -156.5,-138.5 -204.5,-90.5 -48,48 -162.5,-59.5 -226.5,-19.5 z"
         style="display:inline;fill:#b3b3b3;fill-opacity:1;fill-rule:evenodd;stroke:none;stroke-width:1px;stroke-linecap:butt;stroke-linejoin:miter;stroke-opacity:1" />
      <path
         id="path4469"
         d="m 331,2450.5 c 98.5,-52.5 126,98.5 190,210.5 64,112 239,18 239,178 0,160 71,289 -25,353 -96,64 -31,133.5 -127,165.5 -96,32 -199.74741,158.5514 -210.5,-15 -10.75259,-173.5514 49.91109,-275.7242 80,-400 37.70191,-159.9367 -107.24154,-56.4484 -111,-145 0,-96 -134,-294.5 -35.5,-347 z"
         style="display:inline;fill:#b3b3b3;fill-opacity:1;fill-rule:evenodd;stroke:none;stroke-width:1px;stroke-linecap:butt;stroke-linejoin:miter;stroke-opacity:1" />
      <path
         id="path4472"
         d="m 449,3777 c -53,90.5 -44.5,429.5 -28.5,525.5 16,96 221.5,119 239,33 19.14258,-94.0721 -73.5,-82 -41.5,-258 32,-176 108,-255 60,-319 -48,-64 -176,-72 -229,18.5 z"
         style="display:inline;fill:#b3b3b3;fill-opacity:1;fill-rule:evenodd;stroke:none;stroke-width:1px;stroke-linecap:butt;stroke-linejoin:miter;stroke-opacity:1" />
      <path
         id="path4475"
         d="m 1291,5022 c -82.5,0 -131,19 -177.5,-62.5 -44.8534,-78.6141 -14,-158 -110.5,-145 -79.28381,10.6807 -64.59629,138.7187 -130.5,121 C 748.72299,4902.2217 668.66399,4850.9766 650,4766 c -18.66399,-84.9766 -43.94638,-138.264 103.5,-252 147.44638,-113.736 121.99232,-14.6659 226,61.5 112,80 201.5,67.5 207.5,-18 10.0181,-142.7573 -224,-230 -120,-315 111.4976,-91.1278 256,-4.5 272,75.5 16,80 156.5,245 92.5,357 -64,112 -58,347 -140.5,347 z"
         style="display:inline;fill:#b3b3b3;fill-opacity:1;fill-rule:evenodd;stroke:none;stroke-width:1px;stroke-linecap:butt;stroke-linejoin:miter;stroke-opacity:1" />
      <path
         id="path4478"
         d="m 495.5,5575 c 0,48 48,100 -80,100 -128,0 -137.80169,72.9967 -187.5,-31.5 -63.12651,-132.7311 -37.3793,-200.4271 -46.5,-281.5 -9,-80 -18.5,-196 77.5,-276 96,-80 140.5,-131 188.5,-67 48,64 229,163.5 101,195.5 -128,32 -126,5.5 -133,89 -8.96638,106.9561 71.34724,54.0712 95,99.5 23.65276,45.4288 -15,124 -15,172 z"
         style="display:inline;fill:#b3b3b3;fill-opacity:1;fill-rule:evenodd;stroke:none;stroke-width:1px;stroke-linecap:butt;stroke-linejoin:miter;stroke-opacity:1" />
      <path
         id="path4481"
         d="m 1106.5,6587 c -100.1899,60.5772 -78.1143,162.9078 -202,101 -94.58092,-47.2637 -84.02375,-131.9957 -169,-165 -136.03811,-52.8365 5.58295,199.0568 -248.5,212 -254.08295,12.9432 -270.26809,-70.2631 -281.5,-211 -11.23191,-140.7369 111.79694,-120.5902 156.5,-206.5 44.70306,-85.9098 38.65704,-140.7086 -19.5,-203.5 -54.40012,-58.7351 -97.46463,-7.0558 -139,-99.5 -33.00852,-73.4662 42,-122 138,-122 96,0 200.5,-89.5 296.5,-9.5 96,80 76.48197,127.2351 51,194.5 -18.37275,48.4987 -63,114.5 81,210.5 144,96 155.51416,20.1133 241.5,31.5 85.9858,11.3867 195.1899,206.9228 95,267.5 z"
         style="display:inline;fill:#b3b3b3;fill-opacity:1;fill-rule:evenodd;stroke:none;stroke-width:1px;stroke-linecap:butt;stroke-linejoin:miter;stroke-opacity:1" />
      <path
         id="path4484"
         d="m 7408,9400 192,0 c 0,0 67.5,-1 131.5,-65 64,-64 16.5,-70 71,-105.5 110.5542,-72.0123 184,-188.5 -8,-204.5 -192,-16 -204.5,57 -348.5,-23 -144,-80 -88.5161,-39.1185 -223.5,-17.5 -128,20.5 -167,-29.5 -183,66.5 -16,96 -164.1995,101.773 23.5,236 172,123 345,113 345,113 z"
         style="display:inline;fill:#b3b3b3;fill-opacity:1;fill-rule:evenodd;stroke:none;stroke-width:1px;stroke-linecap:butt;stroke-linejoin:miter;stroke-opacity:1" />
      <path
         id="path4487"
         d="m 8400,9400 224,0 c 0,0 104.5,-20 136.5,-100 32,-80 102.1023,-170.6903 33,-211 -90,-52.5 -89.0155,-2.0009 -146.5,-84.5 -61.5686,-88.3604 93,-91 -12,-157.5 -145.5837,-92.203 -76.6693,-150.8003 -211.5,-180.5 -134.8307,-29.6997 -399.0844,-332.9873 -582,-200 -120,60 -153.7957,184.5147 -69,263 75.0987,69.51 131.5,-43 259.5,5 128,48 362.5499,139.3984 346,247 -16.5499,107.6016 -120.5071,65.2574 -115,219 5.5071,153.7426 137,199.5 137,199.5 z"
         style="display:inline;fill:#b3b3b3;fill-opacity:1;fill-rule:evenodd;stroke:none;stroke-width:1px;stroke-linecap:butt;stroke-linejoin:miter;stroke-opacity:1" />
      <path
         id="path4490"
         d="m 9340.5,7949.5 c 39.8166,84.6487 153,114.5 153,178.5 0,64 -10.5,74.5 -10.5,154.5 0,80 -32.9936,131.314 131.5,162.5 164.4936,31.186 339.9936,60.3032 475,-12 135.006,-72.3032 188.5,-265.5 60.5,-265.5 -128,0 -192,48 -256,-16 -64,-64 -144,16 -144,-80 0,-96 -48,-96 32,-144 80,-48 165.5,-132.5 85.5,-164.5 -80,-32 -94.3175,-74.263 -252,42.5 -157.6825,116.763 -86.1599,-118.8174 -266,-125.5 -179.8401,-6.6826 -48.8166,184.8513 -9,269.5 z"
         style="display:inline;fill:#b3b3b3;fill-opacity:1;fill-rule:evenodd;stroke:none;stroke-width:1px;stroke-linecap:butt;stroke-linejoin:miter;stroke-opacity:1" />
      <path
         id="path4493"
         d="m 10011,8875.5 c 71.1,116.2396 230.686,144.0676 271.5,74 40.814,-70.0676 112.663,-90.4352 218,-81.5 105.337,8.9352 90.68,31.3216 203.5,4 80,-16 16,-224 16,-224 0,0 60.842,-192.2598 -64,-176 -124.842,16.2598 -259.399,164.4334 -384,189 -124.601,24.5666 -332.0999,98.2604 -261,214.5 z"
         style="display:inline;fill:#b3b3b3;fill-opacity:1;fill-rule:evenodd;stroke:none;stroke-width:1px;stroke-linecap:butt;stroke-linejoin:miter;stroke-opacity:1" />
      <path
         id="path4496"
         d="m 10096,7656 c 64,16 256,112 256,112 0,0 128.5,114.5 176,208 43.481,85.5886 64,96 96,192 32,96 156.5,46 156.5,46 0,0 56,265.5 152,265.5 96,0 166.5,26.5 214.5,-69.5 48,-96 53,-114 53,-178 0,-64 -128,16 -176,-112 -48,-128 -144,-272 -208,-320 -64,-48 -48,-48 -144,-48 -96,0 -176,-64 -192,-144 -16,-80 0,-160 -96,-160 l -272,0 c -169.4041,-13.6382 -99.984,184.172 -16,208 z"
         style="display:inline;fill:#b3b3b3;fill-opacity:1;fill-rule:evenodd;stroke:none;stroke-width:1px;stroke-linecap:butt;stroke-linejoin:miter;stroke-opacity:1" />
      <path
         id="path4499"
         d="m 11038.5,8652.5 c 0,48 -81,279 60,297.5 175.224,22.9904 469,73.5 469,73.5 0,0 -1.447,144.7995 259,147.5 496,5.1429 540.643,229 540.643,229 l 448.857,0 -69.5,-92.5 c -82.677,-110.0383 -5.5,-170 -245.5,-186 -240,-16 -110,-119.5 -318,-135.5 -208,-16 -359.5,-64 -519.5,-96 -160,-32 -222.5,-257 -382.5,-241 -160,16 -242.5,3.5 -242.5,3.5 z"
         style="display:inline;fill:#b3b3b3;fill-opacity:1;fill-rule:evenodd;stroke:none;stroke-width:1px;stroke-linecap:butt;stroke-linejoin:miter;stroke-opacity:1" />
      <path
         id="path4502"
         d="m 12080,7800 c -58.5,36.5 15.451,60.0125 -94.5,153 -87.5,74 -154.946,256.3107 -76.5,272 137.5,27.5 347,-73 347,-73 0,0 76.5,-48 60.5,-144 -16,-96 80.5,-169 16.5,-217 -64,-48 -253,9 -253,9 z"
         style="display:inline;fill:#b3b3b3;fill-opacity:1;fill-rule:evenodd;stroke:none;stroke-width:1px;stroke-linecap:butt;stroke-linejoin:miter;stroke-opacity:1" />
      <path
         id="path4505"
         d="m 12384,8232 c 16,80 144,64 208,64 152.602,-20.1874 204.013,-13.372 304,-16 64,0 32,176 144,208 112,32 192,32 256,32 64,0 104,-32 104,-32 l 0,-398 c -101.288,-78.0258 -80.924,-18.6175 -150.5,-17 -128,0 -52.5,22.5 -165.5,15 -178.493,-11.8469 -146.5,-143.5 -260.5,-117 -88.159,20.4931 -53.5,199.5 -209.5,147 -128.619,-62.1919 -251.588,-21.1843 -230,114 z"
         style="display:inline;fill:#b3b3b3;fill-opacity:1;fill-rule:evenodd;stroke:none;stroke-width:1px;stroke-linecap:butt;stroke-linejoin:miter;stroke-opacity:1" />
      <path
         id="path4508"
         d="m 6227,6876.5 c 0,64 142,90.5 205.5,115.5 163.7652,64.4745 207.5,88 207.5,88 79.9607,135.8293 125.2268,230.341 305.5,204 180.2732,-26.341 71.1573,-253.2456 174.5,-284 128,-32 48,48 144,96 96,48 96,0 176,-32 80,-32 64,96 176,112 112,16 80,-16 192,-32 112,-16 176,16 256,-48 123.4069,-140.5158 -69.2951,-203.3073 -47.5,-280.5 27.5,-89.5 85,-102 143.5,-135.5 153.3602,-87.8217 279,-126.5 208,-192 -78.8887,-72.7776 -243.5,-80 -243.5,-80 0,0 -108.5,-112 -204.5,-112 -96,0 -160,112 -224,160 -64,48 -102.5,-92 -218,-30 -107.362,57.6316 29.15,131.5056 -141,194 -170.15,62.4944 -192.8721,-274.7269 -262.5,-189.5 -48,64 16,133 -48,197 -64,64 -122.5,65.5 -178.5,52.5 -104.5511,-24.2708 -32,-112 -128,-160 -96,-48 -16,-176 -96,-48 -80,128 32,176 -80,240 -112,64 -192,64 -192,64 -81.978,14.4054 -121.7142,41.4744 -125,100.5 z"
         style="display:inline;fill:#73181f;fill-opacity:1;fill-rule:evenodd;stroke:none;stroke-width:1px;stroke-linecap:butt;stroke-linejoin:miter;stroke-opacity:1" />
      <path
         id="path4511"
         d="m 5632,6673.5 c -88.5,1.5 -217,-4.5 -182,126.5 24.7797,92.7468 -100,268.5 12,236.5 112,-32 239.5,75.5 255.5,-4.5 16,-80 58.5,-96 58.5,-192 0,-96 -55.5,-168 -144,-166.5 z"
         style="display:inline;fill:#73181f;fill-opacity:1;fill-rule:evenodd;stroke:none;stroke-width:1px;stroke-linecap:butt;stroke-linejoin:miter;stroke-opacity:1" />
      <path
         id="path4514"
         d="m 3141,7697 c -24,56 52.5,197.5 -75.5,229.5 -128,32 -217.5,65.5 -233.5,161.5 -16,96 -32,160 64,160 96,0 93.0188,98.7629 176,0 81.5,-97 43.8597,-106.3019 168,-177.5 68,-39 100.5,-66.5 92,-126.5 -11.4435,-80.7778 -2,-261.5 -2,-261.5 0,0 -165,-41.5 -189,14.5 z"
         style="display:inline;fill:#73181f;fill-opacity:1;fill-rule:evenodd;stroke:none;stroke-width:1px;stroke-linecap:butt;stroke-linejoin:miter;stroke-opacity:1" />
      <path
         id="path4517"
         d="m 2000,7928 c -57.5,7.5 -164.5,6.5 -164.5,102.5 0,96 -32,160 80,192 112,32 84.5,9.5 244.5,9.5 160,0 289.5,55.5 353.5,-24.5 64,-80 55.8926,-151.066 46.5,-215.5 -9.3926,-64.434 -58.2313,-138.8309 -96,-144 -37.7687,-5.1691 -63.3497,38.0554 -113,71 0,0 -70.6651,72.5445 -144,53 -73.3349,-19.5445 -149.5,-51.5 -207,-44 z"
         style="display:inline;fill:#73181f;fill-opacity:1;fill-rule:evenodd;stroke:none;stroke-width:1px;stroke-linecap:butt;stroke-linejoin:miter;stroke-opacity:1" />
      <path
         id="path4520"
         d="m 1073,8210.5 c 64,64 65.2027,164.9689 181.5,272.5 99.5,92 119.5,79 232.5,135.5 194.6484,97.3242 280.7914,77.5143 339,-19.5 60,-100 45,-187.5 -18,-223 -119.0974,-67.1104 -32,-16 -128,-80 -96,-64 -96,-160 -208,-112 -112,48 -64,-80 -160,-112 -160.2565,-24.2355 -289.8252,-39.3881 -239,138.5 z"
         style="display:inline;fill:#73181f;fill-opacity:1;fill-rule:evenodd;stroke:none;stroke-width:1px;stroke-linecap:butt;stroke-linejoin:miter;stroke-opacity:1" />
      <path
         id="path4523"
         d="m 877.5,7694.5 c -48,64 -53,224.5 27,224.5 80,0 143.1865,-6.7519 210.5,15 153.5892,49.6314 217,31.5 324,-22 131.9394,-65.9697 39.2169,-130.8873 96.5,-152.5 184.3494,-69.5544 149.5,-192.5 21.5,-192.5 -128,0 -133,121 -229,89 -96,-32 -80,-160 -160,-144 -80,16 -25.3564,64.2763 -32,144 -5,60 -15.7596,123.4643 -63.5,79.5 -88.5,-81.5 -195,-41 -195,-41 z"
         style="display:inline;fill:#73181f;fill-opacity:1;fill-rule:evenodd;stroke:none;stroke-width:1px;stroke-linecap:butt;stroke-linejoin:miter;stroke-opacity:1" />
      <path
         id="path4526"
         d="m 1736.5,2200 c -144,96 -148.5,104 -300.5,34 -177.3972,-81.6961 -40.2838,-29.5406 -252.5,-103 -169,-58.5 -367.5,-28 -421,-63 -68.27235,-44.6642 -75,-209 37,-289 112,-80 -21.5,-200 138.5,-216 160,-16 135,-41.5 247,-73.5 112,-32 111,6.5 287,38.5 176,32 208,104 256,-8 48,-112 111.9126,-103.486 195.5,-68 83.5874,35.486 109.7302,200.8023 -3.5,220 -112,16 -176,112 -272,112 -96,0 0,-16 -160,-16 -160,0 -352,-32 -272,48 80,80 112,208 224,192 112,-16 278,-45.5 278,2.5 0,48 18.5,189.5 18.5,189.5 z"
         style="display:inline;fill:#73181f;fill-opacity:1;fill-rule:evenodd;stroke:none;stroke-width:1px;stroke-linecap:butt;stroke-linejoin:miter;stroke-opacity:1" />
      <path
         id="path4529"
         d="m 2353.5,1500.5 c -80,96 -197.5,166.5 -197.5,262.5 0,96 -40.0151,83.8731 -38.5,197 1.5,112 52.9512,148.5058 158.5,121 105.5488,-27.5058 -38.4372,-212.1387 124.5,-217 128,0 276,26.5 276,106.5 0,80 27.5,117.5 107.5,197.5 214.4121,212.8957 243.4346,-14.451 336,80 80,80 89.6639,124.6575 280,172.5 190.3361,47.8425 425.4246,-81.9119 296,-220.5 -129.6231,-140.5866 -197.5134,6.886 -286.5,-26 -88.9866,-32.886 -113.5,-70 -145.5,-182 -31.4832,-258.0908 -201.6063,-241.0687 -286,-249.5 -160,-16 -226,-38.5 -290,-102.5 -64,-64 -94.5,72.5 -190.5,8.5 -96,-64 -144,-148 -144,-148 z"
         style="display:inline;fill:#73181f;fill-opacity:1;fill-rule:evenodd;stroke:none;stroke-width:1px;stroke-linecap:butt;stroke-linejoin:miter;stroke-opacity:1" />
      <path
         id="path4532"
         d="m 2565.5,2341.5 c -74.5,56.5 -11,218.5 69,250.5 80,32 1.5,161.5 145.5,225.5 144,64 401.3343,26.7428 466,-23 91,-70 34,-2.5 -78,-98.5 -112,-96 16,-160 -96,-208 -112,-48 -210.5,-70.5 -290.5,-54.5 -80,16 -216,-92 -216,-92 z"
         style="display:inline;fill:#73181f;fill-opacity:1;fill-rule:evenodd;stroke:none;stroke-width:1px;stroke-linecap:butt;stroke-linejoin:miter;stroke-opacity:1" />
      <path
         id="path4535"
         d="m 4272,2344 c -63.122,84.54 -192,256 -80,272 112,16 180.5,52 260.5,-44 80,-96 -68.5,-173 59.5,-205 128,-32 144,58.5 256,58.5 112,0 64,-49.5 64,-129.5 0,-80 86,-204.5 -42,-220.5 -128,-16 -215.6498,-17.6575 -309.5,6 -93.8502,23.6575 -145.378,177.96 -208.5,262.5 z"
         style="display:inline;fill:#73181f;fill-opacity:1;fill-rule:evenodd;stroke:none;stroke-width:1px;stroke-linecap:butt;stroke-linejoin:miter;stroke-opacity:1" />
      <path
         id="path4538"
         d="m 4812.5,1214 c -32,72 -171,69.5 -181.5,161 -9.1205,79.4784 -194,63 -194,63 0,0 194,317 290,269 194.4429,-99.9449 37.2113,-247.7219 194,-271 156.7887,-23.2781 90.0488,-334.9095 39.5,-337.5 -96,0 -116,43.5 -148,115.5 z"
         style="fill:#73181f;fill-opacity:1;fill-rule:evenodd;stroke:none;stroke-width:1px;stroke-linecap:butt;stroke-linejoin:miter;stroke-opacity:1" />
     </g>
</svg>
